<?xml version="1.0" encoding="utf-8" standalone="yes"?>
<svg xmlns="http://www.w3.org/2000/svg" version="1.1" baseProfile="tiny" width="177" height="129" viewBox="-0.75 -0.75 29.5 21.5" fill="none" stroke="#000000" stroke-linejoin="round" stroke-linecap="round" stroke-width="0.5">
    
    
    <path d=""></path><path stroke-width="0.4166" d="M1.7917,10a0.2083,0.2083 0 1,1 0.4166,0a0.2083,0.2083 0 1,1 -0.4166,0"></path><path d="M0,12H4"></path><path stroke-width="0.4166" d="M1.7917,14a0.2083,0.2083 0 1,1 0.4166,0a0.2083,0.2083 0 1,1 -0.4166,0"></path><path d=""></path><path d="M6,12a2,2 0 1,1 4,0a2,2 0 1,1 -4,0M8,10a2,2 0 1,1 4,0q0,3 -4,6"></path><path d="M14,10L16,8M16,8L18,10M14,14L16,16M16,16L18,14"></path><path d="M20,8L28,16M22,12a2,2 0 1,1 4,0a2,2 0 1,1 -4,0"></path>
</svg>