<?xml version="1.0" encoding="utf-8" standalone="yes"?>
<svg xmlns="http://www.w3.org/2000/svg" version="1.1" baseProfile="tiny" width="81" height="129" viewBox="-0.75 -0.75 13.5 21.5" fill="none" stroke="#000000" stroke-linejoin="round" stroke-linecap="round" stroke-width="0.5">
    
    
    <path d="M0,12H12M0,14a2,2 0 1,1 4,0a2,2 0 1,1 -4,0M0.585786,15.414214L3.414214,12.585786M0.585786,12.585786L3.414214,15.414214M4,14a2,2 0 1,1 4,0a2,2 0 1,1 -4,0M4.585786,15.414214L7.414213999999999,12.585786M4.585786,12.585786L7.414213999999999,15.414214M8,14a2,2 0 1,1 4,0a2,2 0 1,1 -4,0M8.585786,15.414214L11.414214,12.585786M8.585786,12.585786L11.414214,15.414214M9,11L11,9M10,10L12,12M0,8V12M0,8H4M4,8V12"></path>
</svg>