<?xml version="1.0" encoding="utf-8" standalone="yes"?>
<svg xmlns="http://www.w3.org/2000/svg" version="1.1" baseProfile="tiny" width="105" height="129" viewBox="-0.75 -0.75 17.5 21.5" fill="none" stroke="#000000" stroke-linejoin="round" stroke-linecap="round" stroke-width="0.5">
    
    
    <path d="M0,16H16M8,12H16M8,14a2,2 0 1,1 4,0a2,2 0 1,1 -4,0M8.585786,15.414214L11.414214,12.585786M8.585786,12.585786L11.414214,15.414214M12,14a2,2 0 1,1 4,0a2,2 0 1,1 -4,0M12.585786,15.414214L15.414214,12.585786M12.585786,12.585786L15.414214,15.414214M13,11L15,9M14,10L16,12M2,13L4,15M4,15L6,13"></path>
</svg>