<?xml version="1.0" encoding="utf-8" standalone="yes"?>
<svg xmlns="http://www.w3.org/2000/svg" version="1.1" baseProfile="tiny" width="117" height="129" viewBox="-0.75 -0.75 19.5 21.5" fill="none" stroke="#000000" stroke-linejoin="round" stroke-linecap="round" stroke-width="0.5">
    
    
    <path d=""></path><path stroke-width="0.4166" d="M1.7917,10a0.2083,0.2083 0 1,1 0.4166,0a0.2083,0.2083 0 1,1 -0.4166,0"></path><path d="M0,12H4"></path><path stroke-width="0.4166" d="M1.7917,14a0.2083,0.2083 0 1,1 0.4166,0a0.2083,0.2083 0 1,1 -0.4166,0"></path><path d=""></path><path d="M8,8a5,5 0 0,0 0,8M8,8H16M8,16H16M16,8a5,5 0 0,1 0,8"></path>
</svg>