<?xml version="1.0" encoding="utf-8" standalone="yes"?>
<svg xmlns="http://www.w3.org/2000/svg" version="1.1" baseProfile="tiny" width="129" height="129" viewBox="-0.75 -0.75 21.5 21.5" fill="none" stroke="#000000" stroke-linejoin="round" stroke-linecap="round" stroke-width="0.5">
    
    
    <path d="M0,12H8M4,8V16"></path><path d="M3,4H5M3,6H5M3,4V6M5,4V6"></path><path d="M10,16L14,8M10,16H14M10,12a2,2 0 1,1 4,0a2,2 0 1,1 -4,0"></path><path d="M16,10L18,8M18,8L20,10M16,10H20M16,14H20M16,10V14M20,10V14M16,14L18,16M18,16L20,14"></path>
</svg>