<?xml version="1.0" encoding="utf-8" standalone="yes"?>
<svg xmlns="http://www.w3.org/2000/svg" version="1.1" baseProfile="tiny" width="129" height="129" viewBox="-0.75 -0.75 21.5 21.5" fill="none" stroke="#000000" stroke-linejoin="round" stroke-linecap="round" stroke-width="0.5">
    
    
    <path d="M2,8a5,5 0 0,0 0,8M2,8H6M2,16H6M6,8a5,5 0 0,1 0,8"></path><path stroke-width="0.4166" d="M3.7917,12a0.2083,0.2083 0 1,1 0.4166,0a0.2083,0.2083 0 1,1 -0.4166,0"></path><path d=""></path><path d="M10,12a2,2 0 1,1 4,0a2,2 0 1,1 -4,0M10,16H14"></path><path d="M16,8V16M20,8V16M16,16a2,2 0 1,1 4,0a2,2 0 1,1 -4,0"></path>
</svg>