<?xml version="1.0" encoding="utf-8" standalone="yes"?>
<svg xmlns="http://www.w3.org/2000/svg" version="1.1" baseProfile="tiny" width="129" height="129" viewBox="-0.75 -0.75 21.5 21.5" fill="none" stroke="#000000" stroke-linejoin="round" stroke-linecap="round" stroke-width="0.5">
    
    
    <path d=""></path><path stroke-width="0.4166" d="M1.7917,10a0.2083,0.2083 0 1,1 0.4166,0a0.2083,0.2083 0 1,1 -0.4166,0"></path><path d="M0,12H4"></path><path stroke-width="0.4166" d="M1.7917,14a0.2083,0.2083 0 1,1 0.4166,0a0.2083,0.2083 0 1,1 -0.4166,0"></path><path d=""></path><path d="M6,12a2,2 0 1,1 4,0a2,2 0 1,1 -4,0"></path><path d="M12,10L14,8M14,8L16,10M14,8V16M16,14L18,16M18,16L20,14M18,8V16"></path>
</svg>