<?xml version="1.0" encoding="utf-8" standalone="yes"?>
<svg xmlns="http://www.w3.org/2000/svg" version="1.1" baseProfile="tiny" width="147" height="129" viewBox="-0.75 -0.75 24.5 21.5" fill="none" stroke="#000000" stroke-linejoin="round" stroke-linecap="round" stroke-width="0.5">
    
    
    <path d="M4,8V12M0,12H8M0,12a4,4 0 1,0 8,0"></path><path d="M10,16a2.5,2.5 0 0,1 4,0M14,16a2.5,2.5 0 0,0 4,0M11,16L15,12M13,18L17,14M11,16L13,18M15,12L17,14M16,13L18,11M17,10L21,6M19,12L23,8M17,10L19,12M21,6L23,8"></path>
</svg>